<svg xmlns="http://www.w3.org/2000/svg" xml:space="preserve" width="526.041" height="397.4"><path fill="#555753" d="M89.912 104.16a22 22 0 0 0-.808-.119c-10.394-1.797-20.854 5.47-23.936 15.357-4.543 12.474-.258 26.812 8.881 36.044 5.314 6.197 14.241 10.282 22.307 7.388a24 24 0 0 0 1.17-.431c4.787 15.24 11.329 30.236 22.656 41.6 4.563 4.277 10.567 8.352 17.152 7.571 5.323-1.453 8.04-7.006 9.226-11.972-8.987-.869-14.789-8.787-19.759-15.477-7.085-10.031-12.202-21.324-16.017-33.003 2.701-4.217 6.27-9.003 6.956-13.881.891-6.825 2.952-17.323-2.136-22.041-4.335-7.082-17.366-9.65-25.692-11.036"/><path fill="#B4B4B4" d="M88.215 108.413c-10.065-1.625-19.161 4.684-21.648 15.979-2.944 13.385 4.503 28.727 16.628 34.249 5.571 2.537 11.176 1.711 15.908-1.218 2.711 9.522 14.185 45.475 34.345 51.1 6.44 1.95 9.189-6.614 9.189-6.614-10.186-2.152-25.487-21.867-34.444-48.984-.183-.557-4.134 2.975-4.312 2.413 2.579-4.853 7.869-9.815 9.249-15.219 2.947-13.385 4.35-20.667-7.773-26.192-1.896-.862-15.28-5.214-17.144-5.517z"/><path fill="#8F5902" d="M122.934.115c-5.899-.95-11.36 4.137-11.302 10.014-16.51 53.967-33.606 107.825-49.583 161.914.805 9.607 14.647 15.539 21.697 8.729 5.161-11.095 7.062-23.322 11.322-34.825 13.561-44.884 28.199-89.579 41.006-134.61-.641-6.452-7.306-10.36-13.14-11.222"/><path fill="#FCAF3E" d="M125.934 4.692c4.367 1.669 7.182 5.376 6.285 8.288L81.732 176.888c-.896 2.91-5.164 3.919-9.531 2.253-4.367-1.667-7.183-5.378-6.285-8.288L116.402 6.944c.895-2.91 5.162-3.919 9.532-2.252"/><path fill="#555753" d="M78.51 95.027c-5.943-.823-12.862 3.753-13.442 9.674-.562 2.755 1.158 6.009 1.639 8.511-5.672.876-10.952 6.61-10.222 12.321.296 3.951 3.273 7.484 5.473 10.654-3.281 5.706-1.124 13.522 3.885 17.089 7.306 5.87 19.63 7.058 27.585 1.491 4.798-3.496 5.657-10.782 2.207-15.505-.937-1.712-2.798-2.96-3.794-4.441.392-2.027-.402-4.241-.617-6.038 5.483-2.755 7.373-9.746 5.816-15.383-1.869-8.964-9.208-17.099-18.53-18.373"/><path fill="#B4B4B4" d="M84.638 101.315c-3.661-2.772-9.977-3.972-13.088.187-6.259 12.359 3.487 16.001 11.006 23.033-5.086-1.301-9.05-6.317-11.809-7.315-4.026-1.463-7.748-.522-9.574 6.345.034 11.199 11.677 13.482 22.609 16.03-5.772 2.764-17.84-2.764-18.214-2.202-2.298 3.43-.871 8.619 2.211 11.258 6.164 5.791 16.508 8.002 23.714 2.845 4.972-3.351 1.044-16.055-4.581-13.363 2.769-4.441 2.317-9.582-2.434-12.291 5.973 1.47 10.503-5.781 9.022-10.783-.863-5.535-4.176-10.623-8.862-13.744"/><path fill="#B4B4B4" stroke="#555753" stroke-width="3.795" d="M117.38 122.217c-4.864 9.496-13.947 14.818-20.292 11.888-6.339-2.932-7.54-13.005-2.676-22.501 4.861-9.493 13.944-14.815 20.288-11.888 6.344 2.928 7.54 13.004 2.675 22.501z"/><path fill="#555753" d="M111.394 10.293c4.763-2.832 18.176-.045 23.519 6.104L340.3 72.179l-23.578 74.76-205.947-56.65c-4.97-3.987-15.974-6.458-22.492-6.718 6.641-24.575 13.997-47.932 23.111-73.278"/><path fill="#FFF" d="m133.63 20.815 200.002 54.702-20.346 65.553c-38.25-11.272-160.884-43.257-199.134-54.527zm-19.966-5.17c-8.926 22.765-12.768 41.496-19.214 63.134.275-1.676 15.985 3.567 15.787 4.803 1.312.837 21.075-64.558 19.696-65.434.001-.002-10.134-6.918-16.269-2.503"/><path d="M137.386 63.666c.716-3.538 1.661-7.043 2.763-10.479 17.276-9.981 27.398 17.577-2.763 10.479m-6.523 11.373c-.04.4.881.868 1.26.999.491.167 1.592.17 2.075-.022.449-.18 1.442-.688 1.552-1.16.482-2.079.566-4.486.813-6.737 4.815.613 9.803.775 14.565-.278 20.929-4.591 8.969-29.541-10.852-18.974-1.154.621-5.047 2.87-5.08 4.44-.18 7.08-3.617 14.5-4.333 21.732m58.135-11.002c7.537 15.166-14.295 28.972-21.958 13.529-7.564-15.216 14.26-29.043 21.958-13.529m-2.271 21.171c21.514-11.37 4.914-40.829-16.986-29.189-21.559 11.457-4.867 40.73 16.986 29.189m18.672-12.35c3.928-4.26 9.903-4.758 15.163-3.101 0 1.162.18 2.513.787 3.526l2.437-.254 1.751-1.31.439-4.563c.479-6.653-24.801-2.511-27.005 5.886-1.865 7.151 19.283 6.008 21.836 13.26-2.663 5.358-8.461 6.307-13.854 4.862-9.192-2.464-6.505-7.12-9.73-9.402-3.595.934-1.795 10.931 4.823 12.891 9.111 2.69 32.458-6.591 25.2-13.7-3.468-3.396-17.584-5.358-21.847-8.095m49.755 5.801c5.939-4.995-25.062-13.99-23.956-2.988l1.48 1.561c2.473.189 4.974-.15 7.429-.371-2.145 8.428-4.261 16.909-5.91 25.455l1.182 1.144 2.071.018 1.556-1.03c1.023-8.838 2.696-16.861 5.542-25.304 2.509.461 8.476 2.045 10.606 1.515m21.942 16.392.298-.495-.682-1.929c-3.005-3.563-14.734-3.726-19.208-3.57l1.602-5.363c3.219-.482 16.789.84 17.658-.075l-.449-2.317c-4.447-4.729-13.049-4.369-19.103-3.504-2.555 2.509-3.098 8.099-3.877 11.512-2.395.776-2.657 2.935-1.142 4.748-1.014 4.082-2.163 8.409-2.689 12.355-.057.425.845 1.056 1.26 1.168.507.136 1.615.226 2.102.03.465-.188 1.469-.795 1.541-1.292.583-4.115.861-8.216 1.843-12.26 6.896-.52 14.304 1.831 20.846.992m1.864 18.883c.427-.192 1.411-.627 1.529-1.081 2.498-9.628 4.404-18.315 7.479-28.057l-1.227-1.446c-6.971-1.897-10.376 28.871-9.84 30.536.157.489 1.589.259 2.059.048m36.039-21.564c.061-.52-.426-1.529-.709-1.97-.299-.465-1.393-1.361-1.893-1.131-4.016 1.854-9.764 7.26-12.853 10.393-.833-2.037-5.077-15.637-5.897-15.66-.501-.016-1.502.394-1.861.743-.373.361-1.184 1.284-1.057 1.787.824 3.271 3.943 12.283 5.709 16.271-3.922 3.93-7.805 7.547-11.547 12.021-.293.352.322 1.4.662 1.707.359.325 1.203.89 1.684.949.518.064 1.688-.026 2.052-.402 2.89-2.983 5.749-6.689 8.938-9.866 1.007 2.416 4.696 11.554 5.873 12.544.42.354 1.65-.459 2.018-.865.395-.433 1.063-1.429 1.236-1.987.272-.88-5.421-11.58-5.939-12.769 1.696-1.583 13.514-11.178 13.584-11.765"/><path fill="#8F5902" d="M312.405 275.942c-5.947.298-13.213.021-17.365 5.021-4.473 6.772-2.844 15.45-2.23 23.075.133 2.479 1.22 5.163.938 7.48-7.805 9.375-12.33 14.365-19.897 23.927 7.534 10.2 19.446 22.676 31.779 27.02.984-9.112 1.985-18.227 2.897-27.346 10.272 14.895 26.459 24.451 42.942 31.156 11.72 4.49 24.794 7.477 37.26 4.441 7.078-2.106 12.996-8.796 12.582-16.448.015-9.016-3.95-17.343-6.992-25.646-9.604-22.331-28.702-40.618-52.042-47.96-9.59-3.215-19.727-4.9-29.872-4.72"/><path fill="#E9B96E" d="m280.27 333.218 17.787-20.95s-5.534-24.51.792-30.041c6.324-5.533 80.636-9.094 98.422 67.593 6.325 39.132-81.822 9.487-91.308-28.854.79-4.35-3.163 32.41-3.163 32.41s-14.23-20.158-22.53-20.158"/><path fill="#555753" d="M433.448 130.583c-21.237.32-40.755 13.048-52.673 30.068-26.47 2.771-34.2 10.75-41.1 31.033-11.392 4.354-25.313 11.707-21.283 25.728-.381 4.18.683 8.547-1.126 12.488-8.447 33.572-7.097 70.156 6.511 102.179 2.519 5.313 5.98 11.681 12.336 12.735 9.143 1.722 17.945-3.114 24.69-8.833 4.559-3.857 9.439-7.577 15.303-9.11 8.536-3.302 19.014-11.725 21.8-20.928 2.828-13.408-4.231-17.627-16.104-19.53-14.763-1.563-30.433 9.688-43.646-8.878 5.805-10.66 15.167-27.436 21.703-37.676 2.768 4.256 5.393 8.958 10.16 9.742 1.544 16.255 20.184 15.596 25.29 12.705 15.4 17.164 55.275 15.671 75.701 13.194 17.138-3.21 35.775-10.952 45.35-26.01 23.843-60.682 1.082-79.734-40.295-106.47-12.845-7.507-27.505-12.767-42.617-12.437"/><path fill="#F8EDA6" d="M434.088 134.344c-26.179.367-38.568 15.684-45.096 24.25 0 0 16.984-.165 35.542 6.229-47.716-11.914-83.558 14.892-78.68 25.033 11.506-4.757 41.473.585 39.416 1.497-19.014-.083-67.887-1.724-62.764 33.616-17.33 58.135 3.354 112.35 12.298 115.705 31.942 7.41 32.46-35.721 54.215-42.793 5.875 2.125-10.388 23.383-15.361 25.954-1.551.8 4.053 2.836 9.846-5.188 18.03-17.602 11.899-31.583-10.506-28.51-6.795.975-20.847 1.71-26.181.558-.888 1.238 13.522 4.748 9.707 7.697 0 0-10.09-3.146-12.153-8.067 0 0-.641-.452-.943-.691 2.904 10.841 14.618 17.773 14.618 17.773-13.163-1.317-23.67-24.606-24.348-29.897 0 0 25.834-47.278 25.834-43.367 3.328 11.396 18.232 16.363 32.261 9.563.063-.011-4.028 6.732-17.674 6.415 4.992 17.025 23.81 11.148 37.787-4.857 0 0-1.928 7.982-13.521 15.341 14.91 12.27 84.625 26.274 111.708-10.576-7.525 1.074-57.46 7.894-55.712-.837 11.317-17.608-11.32-75.463-11.32-75.463-4.92-7.428 32.511-17.676 51.055-13.254a163 163 0 0 0-3.102-2.522c-22.41-17.846-41.392-23.828-56.926-23.609m62.998 28.676c11.236 13.76 15.23 68.804 14.633 84.66 7.536-11.62 11.104-27.854 8.125-50.103-1.875-13.997-13.625-26.521-22.758-34.557"/><path fill="#555753" d="M183.235 118.532c-18.462.423-34.813 13.49-42.341 29.842-5.273 10.854-6.317 23.603-4.469 35.327-14.7 5.104-26.682 17.582-30.669 32.684-17.634-1.969-35.773-2.905-53.212.888-6.899 1.461-13.499 4.031-19.797 7.107-4.596 1.332-9.864.688-13.783 3.903-3.74 2.53-5.165 7.285-4.339 11.601 1.357 8.339 7.994 14.495 14.243 19.585 10.712 8.243 24.796 11.729 38.2 9.657 19.874-2.287 37.525-12.667 55.948-19.62 7.74-2.342 16.112-.219 23.901-2.527 3.545-.853 6.99-2.255 10.033-4.313 23.09 18.49 21.128 45.656 14.075 71.745-7.002-5.377-13.604-16.424-22.084-19.133-15.815 4.509-20.854 23.492-30.497 38.218 4.324 3.333 6.525 1.236 10.809 4.624 6.706-8.645 12.974-18.217 19.716-26.856 7.114 5.063 15.368 15.374 21.124 21.92 7.44 46.396 47.346 42.303 84.534 29.33 6.55 5.869 15.66 11.578 24.855 11.528 8.492-1.119 9.949-14.407 12.396-26.409-3.625-4.796-3.424-5.488-8.12-8.415-4.976 8.963-3.905 12.324-8.951 21.252-.974-.732-9.491-8.872-7.971-10.485 20.538-43.33 8.29-74.539-26.822-103.612 17.603-9.512 38.994-8.926 57.747-3.509 1.051.521 3.545.65 3.6 1.56-3.076 4.12-5.905 9.998-3.121 14.97 3.803 5.815 10.134 9.247 15.572 13.335 11.243 7.396 23.266 13.896 36.151 17.897 19.029-.64 18.737-10.956 10.813-22.168 3.865-1.955 7.882-7.41 2.671-18.104 6.23-15.263-14.159-27.133-27.441-28.534-7.968-.41-15.656 2.246-23.238 4.12-13.758-1.604-27.438-3.597-41.188-5.354 17.104-11.63 31.044-29.405 34.238-50.252 2.299-15.281-2.925-32.495-16.016-41.448-13.16-9.159-30.69-9.081-45.526-4.338-9.688 2.836-18.836 7.407-27.454 12.515-7.547-10.803-20.034-18.944-33.587-18.531"/><path fill="#B4B4B4" d="M183.257 122.317c-25.772.354-50.874 29.855-42.175 63.931-22.205 5.553-32.323 26.979-32.119 34.253-58.696-7.268-70.982 7.277-77.69 8.396-1.677 0-19.545-.563-10.601 16.767 35.217 46.397 89.872-1.827 108.996-1.132 16.429.597 21.408-4.303 24.313-6.213 11.632-12.704 9.588-14.631 14.388-21.943l12.071-15.822c3.056.938-4.179 16.947-9.915 20.187-1.676 4.624-12.941 17.624-12.346 18.217 30.854 24.938 18.944 57.271 14.142 89.663-.396-.335-.867-10.075-1.258-10.397-12.888-10.703-21.81-19.188-21.81-19.188-8.393-1.872-18.821 20.104-26.521 33.298l4.91 2.1 21.24-28.279s17.12 17.78 24.388 26.727c11.729 54.201 65.433 31.524 78.069 26.772.978-.367-7.488-10.298-7.535-12.705 9.271 10.261 19.054 21.382 34.479 24.827 7.97 0 11.407-26.901 11.407-26.901-1.007-2.237-2.489-3.714-4.255-4.74l-9.139 25.295c-5.206-2.395-20.563-20.267-23.33-25.284.23-.42 11.006 8.764 11.228 8.345 27.178-51.073-13.563-89.24-27.063-99.536-.508-.388-10.205 5.157-10.63 4.847-1.367-.983 6.94-7.449 6.643-7.581 31.86-22.274 76.53-3.906 74.297-3.349 0 0-9.689 10.488-5.707 15.174 10.615 12.489 43.201 28.194 49.301 29.006 12.757.038 12.797-7.008 9.085-13.288-2.138-3.609-6.104-6.136-8.539-8.694 16.288 2.376 12.916-12.17 4.131-16.359.056-.609 5.448.431 5.48-.173-.835-25.517-29.343-25.249-47.052-18.493l-53.531-7.133c68.65-37.87 47.397-120.297-23.438-91.875-26.731 7.592-37.669 39.88-39.676 66.985-.455-1.95-1.891-10.075-2.113-11.934-25.241-15.153-35.013-7.405-52.021 5.149 19.52-27.827 40.65-17.047 53.07-7.84-.943-16.589 6.99-29.698 17.323-44.076-1.906-8.156-19.619-17.153-30.497-17.004m84.318 29.514c9.237.05 16.646 4.681 17.851 17.438-8.736-27.849-54.7-2.974-60.829 20.608 18.178-8.263 16.512 21.617-.637 15.603 1.738 6.731 8.521 7.2 20.458 2.19-34.099 19.034-31.503-18.224-15.505-37.767 7.74-8.426 25.16-18.143 38.662-18.072m-61.89 72.573c15.854 5.21 20.154 7.37 43.98 0-12.828 5.522-30.084 10.157-36.283 17.002l3.295-7.755z"/><path fill="#8F5902" d="M52.472 299.265c-6.436.579-13.715-.137-19.137 3.771-12.5 9.003-15.558 27.935-9.008 41.777 5.887 13.275 18.124 22.305 30.396 29.355 16.078 8.826 33.734 14.479 51.408 19.234 9.468 2.311 19.191 4.41 28.994 3.926 4.62-.42 9.969-3.195 10.412-8.322.695-6.076-2.976-11.366-4.694-16.97-3.028-7.675-6.34-15.233-9.574-22.824q6.468-5.408 12.938-10.813c-5.83-7.45-12.277-15.76-22.026-17.852-4.017-1.229-7.991 1.935-8.913 6.012-.424 1.873-1.146 3.662-1.648 5.519-12.749-19.709-35.154-33.813-59.148-32.813"/><path fill="#555753" d="M107.43 218.955c1.958 3.946 6.59 7.078 11.06 5.424 7.541 16.843 30.997 4.488 34.883-10.006 3.83-14.293 5.396-33.063-13.277-27.914-12.746-17.221-39.753 13.043-32.666 32.496"/><path fill="#FFF" d="M109.674 196.875c-6.473 7.17-1.849 31.207 10.354 24.431 3.748 19.008 26.143 5.476 29.502-7.072 6.757-25.205-3.41-27.46-10.43-23.577-6.682 3.698-12.487 10.837-18.13 26.697 1.547-10.5 8.729-25.735 16.214-28.89-4.389-8.65-22.804.971-27.51 8.411"/><path d="M138.534 212.694c-1.862-.095-3.583 2.09-3.865 4.864-.282 2.771.971 5.103 2.835 5.196 1.862.098 3.584-2.09 3.865-4.86.009-.088-.009-.166 0-.253a2.04 2.04 0 0 1-1.549.671c-1.098 0-2.01-.709-2.01-1.594 0-.887.912-1.596 2.01-1.596.552 0 1.032.172 1.395.461-.397-1.646-1.373-2.822-2.681-2.889m-19.32-6.528c-1.521-.067-2.88 2.14-3.063 4.915-.181 2.778.876 5.09 2.396 5.159 1.517.07 2.879-2.138 3.061-4.916.005-.087-.007-.166-.005-.251-.288.403-.708.682-1.245.692-.894.015-1.646-.683-1.663-1.565-.014-.883.718-1.604 1.609-1.621.446-.007.84.157 1.14.442-.352-1.644-1.166-2.808-2.23-2.855"/><path fill="#A40000" d="M170.462 220.816c-1.199 2.053-2.858 5.707-4.357 6.688 14.59 15.843 16.445 50.523 37.654 30.227 16.354-20.042-14.708-39.268-28.881-42.092-3.258 1.496-2.179 2.232-4.416 5.177"/><path fill="#EF2929" d="M173.602 216.604c-.674.108-1.31 1.182-3.22 4.368 11.764-2.284 17.289 11.65 15.8 11.838l-16.133-11.424c-2.214 2.878-3.964 5.979-4.193 5.979 13.523 6.325 18.465 37.029 27.247 32.667 13.237-6.574 16.495-29.063-18.582-43.32-.04-.009-.869-.115-.919-.108"/><path d="M39.864 213.438c3.013 16.664-3.307 31.171-14.105 32.399-10.8 1.23-21.996-11.278-25.006-27.943-3.008-16.665 3.308-31.171 14.105-32.402 10.801-1.23 21.998 11.281 25.006 27.946"/><path fill="#E9B96E" d="M111.137 338.39s-22.698-44.17-72.582-33.723c-7.701 1.613-50.682 53.141 65.22 84.195 36.354 9.74 39.135 2.769 37.946-3.163-1.187-5.93-15.02-37.55-15.02-37.55l12.253-10.275s-11.463-15.813-20.558-13.438c-1.156 1.158-3.278 8.05-4.459 12.634-.162.63 4.688 11.24 4.541 11.812-.596 2.351-7.341-10.492-7.341-10.492"/><path fill="#C17D11" d="M35.875 313.017c15.521-8.013 34.328 31.997 58.479 48.738 19.673 13.634 40.836 20.98 39.935 27.979-17.04 6.901-137.48-28.581-98.414-76.717" opacity=".6"/><path fill="#FFF" d="M22.9 208.866c0 8.242-4.177 14.924-9.33 14.924-5.15 0-9.327-6.681-9.327-14.924s4.177-14.924 9.327-14.924c5.153 0 9.33 6.682 9.33 14.924" opacity=".4"/><path fill="#FFF" d="M42.337 226.404c-.287.244-1.205 7.903-.333 7.555 14.815-5.929 37.775-10.72 65.345-11.674-5.461-1.366-42.128-7.041-65.012 4.119"/><path fill="#555753" d="M104.378 194.537s-10.696 11.605-.229 20.479c-2.729-7.509-2.274-15.701.229-20.479"/><path fill="#FFF" d="M490.885 162.76c-14.844.225-30.037 2.504-43.155 9.702-.794.438-2.004 1.521-1.038 2.467 7.215 20.263 14.034 41.22 13.82 62.975a38.2 38.2 0 0 1-2.582 11.391c3.885 1.354 8.146.904 12.203 1.19 12.957.04 25.952-1.771 38.695-3.371-.271-1.76-.217-3.552-.157-5.365-.438-21.338-2.72-42.771-8.013-63.425-1.6-5.203-3.276-10.844-7.3-14.738-.709-.52-1.58-.88-2.473-.826"/><path fill="#555753" d="M470.961 240.825c-.643-2.438-.34-6.908-.34-6.908s14.494-3.8 11.287-4.412l-12.464-3.13c-1.183-2.624.54-6.825.54-6.825s19.569-.044 26.527-.441c1.724 2.866-.574 4.754-.574 4.754-4.521.26-15.451.332-19.973.592l13.854 3.471c.419 6.085-8.467 5.028-12.082 7.988 5.874-.338 13.438 2.004 20.826 2.004 3.667.732 1.065 5.203.027 4.995-6.507.369-21.874-1.331-27.628-2.088m19.36-37.304c.568 2.357-.271 5.168 1.437 7.149 2.044.566 5.171 1.147 4.357 4.233-2.825 2.8-28.271-3.859-28.271-3.859-3.699-2.299-.04-5.88 3.609-7.095 5.628-1.87 16.128-4.353 22.778-6.623 1.425 2.959-.408 6.576-3.91 6.195m-4.525 6.692c.861-2.938.073-5.418.073-5.418-1.217.435-12.064 2.275-10.994 3.37 2.887.559 8.031 1.492 10.921 2.048m-21.401-13.13c-1.976-3.037 4.521-5.036 4.521-5.036 6.617-.38 15.12-1.699 21.737-2.081 1.977 3.036-3.203 5.411-3.203 5.411-6.621.38-16.439 1.326-23.055 1.706m-.614-10.363c-3.361-7.494 16.104-5.521 21.034-5.897.474-2.804-5.59-12.144-1.996-13.729 4.271-.109 6.582 17.236 5.806 18.285-7.777.447-17.062.893-24.844 1.341"/><path fill="#FFF" d="M203.307 181.936c-.287.246-.7 8.421-.333 7.557 15.263-35.944 38.89-59.3 69.458-61.032-27.14.967-56.691 3.633-69.125 53.475"/></svg>